<svg id="Layer_1" data-name="Layer 1" xmlns="http://www.w3.org/2000/svg" viewBox="0 0 393.03 427.51"><defs><style>.cls-1,.cls-6{fill:#e1e1e1;}.cls-2{fill:#2b454e;}.cls-3,.cls-9{fill:#fff;}.cls-13,.cls-15,.cls-4{fill:#375a64;}.cls-5{fill:#00dfbf;}.cls-6{opacity:0.81;}.cls-18,.cls-7{opacity:0.15;}.cls-8{fill:#1a2e35;}.cls-9{opacity:0.9;}.cls-10{opacity:0.4;}.cls-11,.cls-17,.cls-18,.cls-21,.cls-30{fill:#371cbe;}.cls-12{fill:#f0f0f0;}.cls-13,.cls-14,.cls-23{opacity:0.5;}.cls-15{font-size:24.3px;font-family:Rubik-Medium, Rubik Medium;font-weight:500;}.cls-16{letter-spacing:0em;}.cls-17,.cls-31{opacity:0.1;}.cls-19{fill:#ffaaa8;}.cls-20,.cls-21,.cls-24{opacity:0.3;}.cls-22{fill:#ff9090;}.cls-24{fill:#17123a;}.cls-25{fill:#ffbea7;}.cls-26{opacity:0.2;}.cls-27{opacity:0.6;}.cls-28{fill:#e7e7e7;}.cls-29{fill:#ff9875;}.cls-30{opacity:0.25;}.cls-32{fill:#a54e4d;}.cls-33{fill:#8a3433;}</style></defs><ellipse id="Shadow" class="cls-1" cx="239.07" cy="367.79" rx="41.38" ry="23.89"/><ellipse id="Shadow-2" data-name="Shadow" class="cls-1" cx="346.72" cy="353.65" rx="41.38" ry="23.89"/><ellipse id="Shadow-3" data-name="Shadow" class="cls-1" cx="120.38" cy="403.62" rx="41.38" ry="23.89"/><g id="Plants"><path class="cls-2" d="M156.8,363.8s-1.08-25.27-11.67-39.32-23.57-16.08-30-12.13c-4.7,2.89-4.07,11.44,4.06,17s23.8,19.81,26.25,29.1Z" transform="translate(-104.26 -38.74)"/><path class="cls-3" d="M149.85,360.12a.66.66,0,0,1-.61-.69c1.09-22.92-19-37.21-24.47-39.78a.66.66,0,1,1,.56-1.19c5.61,2.65,26.34,17.39,25.22,41a.67.67,0,0,1-.69.63Z" transform="translate(-104.26 -38.74)"/><path class="cls-4" d="M151.77,355.82a6,6,0,0,1-3.86-1.54c-1.23-1.36-1.13-3.42-1.7-5.17-.93-2.86-3.75-4.79-6.69-5.41a20.31,20.31,0,0,0-8.92.61c-5.9,1.45-11.57-2.18-17.48-1.76a11.89,11.89,0,0,0-6,1.88,6.38,6.38,0,0,0-2.86,5.36,6.87,6.87,0,0,0,2.43,4.55,20.54,20.54,0,0,0,4.48,2.8l5.19,2.64a9.44,9.44,0,0,1,2.41,1.57,6.88,6.88,0,0,1,1.81,5.52c-.4,2-2,3.53-2.51,5.49-.63,2.57.94,5.32,3.2,6.71a13.18,13.18,0,0,0,7.68,1.5c2.65-.15,5.27-.68,7.92-.73A9.41,9.41,0,0,1,142,381a9.63,9.63,0,0,1,3.63,5.28,14,14,0,0,0,1.62,3.86,7.47,7.47,0,0,0,3.53,2.45,12,12,0,0,0,8.25,0c2.19-.84,3.26-3.31,4.08-5.44a19,19,0,0,0,1.15-7,44.67,44.67,0,0,0-4.07-17.74c-1.23-2.56-3-5.12-5.72-6A16.2,16.2,0,0,0,151.77,355.82Z" transform="translate(-104.26 -38.74)"/><path class="cls-3" d="M157.5,383.29a.58.58,0,0,1-.55-.4c-6.17-17.68-35.36-33.08-46-34.84a.58.58,0,0,1,.19-1.15c10.88,1.79,40.65,17.52,47,35.61a.57.57,0,0,1-.36.74A.43.43,0,0,1,157.5,383.29Z" transform="translate(-104.26 -38.74)"/><path class="cls-3" d="M131.26,373.6a.59.59,0,0,1-.46-.23.58.58,0,0,1,.11-.82,29.54,29.54,0,0,1,16.22-5.21h0a.59.59,0,0,1,.58.58.57.57,0,0,1-.57.59,28.75,28.75,0,0,0-15.53,5A.6.6,0,0,1,131.26,373.6Z" transform="translate(-104.26 -38.74)"/></g><path class="cls-4" d="M157.81,397a4.85,4.85,0,0,1-2.12-3.83V184.75a5,5,0,0,1,2.26-3.9L403.12,39.31a4.23,4.23,0,0,1,6.48,3.74v208.4a5,5,0,0,1-2.26,3.91L162.18,396.9A4.88,4.88,0,0,1,157.81,397Z" transform="translate(-104.26 -38.74)"/><path class="cls-5" d="M161.75,397.09l-.09,0a1.19,1.19,0,0,1-.22.08.49.49,0,0,1-.17.06,1.41,1.41,0,0,1-.31.07.71.71,0,0,1-.21,0l-.34.05a4.38,4.38,0,0,1-2.6-.44,4.81,4.81,0,0,1-2.11-3.83V211.47l4.24,2.45V395.59c0,1,.51,1.61,1.25,1.61a1,1,0,0,0,.3,0h.05A.9.9,0,0,0,161.75,397.09Z" transform="translate(-104.26 -38.74)"/><path class="cls-6" d="M161.75,397.09l-.09,0a1.19,1.19,0,0,1-.22.08.49.49,0,0,1-.17.06,1.41,1.41,0,0,1-.31.07.71.71,0,0,1-.21,0l-.34.05a4.38,4.38,0,0,1-2.6-.44,4.81,4.81,0,0,1-2.11-3.83V211.47l4.24,2.45V395.59c0,1,.51,1.61,1.25,1.61a1,1,0,0,0,.3,0h.05A.9.9,0,0,0,161.75,397.09Z" transform="translate(-104.26 -38.74)"/><polygon class="cls-5" points="55.67 175.18 51.43 172.73 51.43 213.08 55.67 215.55 55.67 175.18"/><polygon class="cls-7" points="55.67 175.18 51.43 172.73 51.43 213.08 55.67 215.55 55.67 175.18"/><path class="cls-8" d="M160.58,185a4.65,4.65,0,0,0-.65,2.22v26.73l-4.24-2.45V184.76a2.35,2.35,0,0,1,0-.27,5.62,5.62,0,0,1,.09-.57,5.55,5.55,0,0,1,.56-1.39Z" transform="translate(-104.26 -38.74)"/><path class="cls-2" d="M409.6,43.05V55.1L229.89,158.86c-1.24.71-2.25.13-2.25-1.31V153c0-1.44-1-2-2.26-1.3l-54.73,31.6a5,5,0,0,0-2.26,3.9v4.57a5,5,0,0,1-2.25,3.9l-6.21,3.59V187.19a5,5,0,0,1,2.25-3.9L407.35,41.75C408.59,41,409.6,41.61,409.6,43.05Z" transform="translate(-104.26 -38.74)"/><path class="cls-5" d="M409.61,251.44a5,5,0,0,1-2.26,3.91L162.18,396.89c-1.24.72-2.25.14-2.25-1.3V199.25l6.21-3.59c1.24-.71,3.26-11.65,4.51-12.37l53.81-31.07c1.25-.72,4.19,7.35,5.43,6.64L409.6,55.1V251.44Z" transform="translate(-104.26 -38.74)"/><path class="cls-9" d="M409.61,251.44a5,5,0,0,1-2.26,3.91L162.18,396.89c-1.24.72-2.25.14-2.25-1.3V199.25l6.21-3.59c1.24-.71,3.26-11.65,4.51-12.37l53.81-31.07c1.25-.72,4.19,7.35,5.43,6.64L409.6,55.1V251.44Z" transform="translate(-104.26 -38.74)"/><g class="cls-10"><path class="cls-5" d="M408.6,56.83V251.44a4,4,0,0,1-1.76,3.05L161.68,396a1.1,1.1,0,0,1-.51.17c-.23,0-.24-.51-.24-.61V199.83l5.71-3.3c.88-.51,1.44-2.26,2.7-6.76a33.25,33.25,0,0,1,1.88-5.66l53.37-30.81a22.37,22.37,0,0,1,1.72,2.74c1.45,2.54,2.25,3.86,3.41,3.86a1.32,1.32,0,0,0,.67-.18L408.6,56.83m1-1.73L229.89,158.86a.35.35,0,0,1-.17,0c-1.26,0-3.82-6.73-5.09-6.73a.34.34,0,0,0-.17.05l-53.81,31.07c-1.25.72-3.27,11.66-4.51,12.37l-6.21,3.59V395.59c0,1,.51,1.61,1.24,1.61a2,2,0,0,0,1-.31L407.35,255.35a5,5,0,0,0,2.26-3.91V55.1Z" transform="translate(-104.26 -38.74)"/></g><polygon class="cls-11" points="55.67 175.18 55.67 215.55 305.34 71.42 305.34 31.03 55.67 175.18"/><path class="cls-12" d="M409.6,55.1V69.77L159.93,213.92V199.25l4.63-2.69c1.24-.72,1.66-1.81,2.25-3.9l1.58-5.47c.49-1.89,1-3.18,2.26-3.9l53.81-31.07c1.25-.72,2.23-.8,3.18.77l1.93,3.5c.7,1.22,1.06,1.94,2.3,1.22Z" transform="translate(-104.26 -38.74)"/><path class="cls-11" d="M399,50.61c1.57-.91,2.84-.17,2.84,1.64A6.25,6.25,0,0,1,399,57.16c-1.56.91-2.83.17-2.83-1.64A6.27,6.27,0,0,1,399,50.61Z" transform="translate(-104.26 -38.74)"/><path class="cls-11" d="M388.81,56.5c1.56-.91,2.83-.17,2.83,1.64a6.27,6.27,0,0,1-2.83,4.91c-1.57.91-2.84.18-2.84-1.63A6.27,6.27,0,0,1,388.81,56.5Z" transform="translate(-104.26 -38.74)"/><path class="cls-11" d="M378.59,62.39c1.56-.9,2.83-.17,2.83,1.64A6.3,6.3,0,0,1,378.59,69c-1.57.9-2.84.17-2.84-1.64A6.28,6.28,0,0,1,378.59,62.39Z" transform="translate(-104.26 -38.74)"/><path class="cls-13" d="M170.27,200.31l-3.54,2,1.35-2.6a.65.65,0,0,0,0-.63c-.1-.12-.28,0-.4.19L165.79,203v0a.58.58,0,0,0-.05.14l0,0a1.23,1.23,0,0,0,0,.19.7.7,0,0,0,0,.16s0,0,0,0a.22.22,0,0,0,.05.08h0l1.92,1.47a.16.16,0,0,0,.19,0,.62.62,0,0,0,.21-.27c.1-.24.09-.51,0-.6l-1.35-1,3.54-2a.74.74,0,0,0,.29-.6C170.56,200.34,170.43,200.21,170.27,200.31Z" transform="translate(-104.26 -38.74)"/><path class="cls-13" d="M173.23,198.6l3.54-2-1.35-1a.56.56,0,0,1,0-.61c.1-.24.28-.36.4-.27l1.92,1.48h0a.24.24,0,0,1,.06.08s0,0,0,0a.38.38,0,0,1,0,.16.63.63,0,0,1,0,.19s0,0,0,0a.75.75,0,0,1-.06.13v0l-1.92,3.69a.53.53,0,0,1-.19.22.15.15,0,0,1-.21,0,.62.62,0,0,1,0-.63l1.35-2.6-3.54,2c-.16.09-.28,0-.28-.28A.74.74,0,0,1,173.23,198.6Z" transform="translate(-104.26 -38.74)"/><path class="cls-13" d="M184.85,188.4c0-.21-.21-.19-.3,0l-.49,1.18c-.83-.09-1.83.72-2.51,2.15-.87,1.86-.87,4.06,0,4.9a1.26,1.26,0,0,0,1.6.09,4.36,4.36,0,0,0,1.59-1.93.61.61,0,0,0,0-.62c-.12-.1-.3,0-.41.24-.65,1.38-1.72,2-2.37,1.37s-.66-2.27,0-3.66c.46-1,1.13-1.57,1.72-1.61l-.37.9c-.09.23,0,.45.14.35l1.45-.94a.49.49,0,0,0,.16-.4Z" transform="translate(-104.26 -38.74)"/><path class="cls-13" d="M222.91,158.91l1.29-2.73a.84.84,0,0,0,0-.85c-.15-.15-.4,0-.55.32l-1.29,2.73-1.3-1.24c-.15-.15-.4,0-.55.32a.84.84,0,0,0,0,.85l1.29,1.24-1.29,2.73a.84.84,0,0,0,0,.85.21.21,0,0,0,.28,0,.69.69,0,0,0,.27-.34l1.3-2.73,1.29,1.24a.2.2,0,0,0,.27,0,.76.76,0,0,0,.28-.34.84.84,0,0,0,0-.85Z" transform="translate(-104.26 -38.74)"/><path class="cls-3" d="M189.55,191.76V187.2a5,5,0,0,1,2.25-3.91L394.65,66.23c1.25-.72,2.26-.13,2.26,1.31V72.1A5,5,0,0,1,394.65,76L191.8,193.06C190.56,193.78,189.55,193.2,189.55,191.76Z" transform="translate(-104.26 -38.74)"/><path class="cls-1" d="M391.58,76.26a.41.41,0,0,1-.16,0,.52.52,0,0,1-.28-.58l.22-1.89s0,0,0,0l-.92-.66a.5.5,0,0,1-.2-.43.92.92,0,0,1,.34-.71l1.32-1a.3.3,0,0,0,.09-.15l.59-2a.76.76,0,0,1,.59-.56.44.44,0,0,1,.43.26h0l.53,1.14,1.2-.47a.47.47,0,0,1,.5.12.72.72,0,0,1,0,.8l-1,1.8a.45.45,0,0,0,0,.17l.23,1.63a.92.92,0,0,1-.26.73.54.54,0,0,1-.44.18l-1.19-.15L392,76A.57.57,0,0,1,391.58,76.26Zm-.74-3.63.92.66a.56.56,0,0,1,.19.54l-.18,1.56,1-1.26a.58.58,0,0,1,.51-.25l1.19.15s.05-.16,0-.24l-.23-1.63a.93.93,0,0,1,.11-.53l1-1.79-1.1.42a.44.44,0,0,1-.57-.23l-.49-1v0l-.59,1.94a.9.9,0,0,1-.3.45l-1.32,1A.42.42,0,0,0,390.84,72.63Z" transform="translate(-104.26 -38.74)"/><g class="cls-14"><path class="cls-4" d="M399.57,65.68a.79.79,0,0,1-.68-.39.78.78,0,0,1,.29-1.07l6.34-3.67a.79.79,0,0,1,.79,1.36L400,65.57A.82.82,0,0,1,399.57,65.68Z" transform="translate(-104.26 -38.74)"/><path class="cls-4" d="M399.57,69.34a.79.79,0,0,1-.68-.39.77.77,0,0,1,.29-1.06l6.34-3.67a.78.78,0,0,1,.79,1.35L400,69.24A.81.81,0,0,1,399.57,69.34Z" transform="translate(-104.26 -38.74)"/><path class="cls-4" d="M399.57,73a.78.78,0,0,1-.39-1.46l6.34-3.66a.78.78,0,1,1,.79,1.35L400,72.9A.72.72,0,0,1,399.57,73Z" transform="translate(-104.26 -38.74)"/></g><polygon class="cls-1" points="55.67 160.51 55.67 175.18 51.43 172.73 51.43 158.07 55.67 160.51"/><text class="cls-15" transform="matrix(0.65, -0.38, 0, 1, 226.4, 106.22)"><tspan class="cls-16">A</tspan><tspan x="14.8" y="0">bout us</tspan></text><polygon class="cls-17" points="66.5 225.07 135.55 185.2 135.55 297.77 66.3 337.52 66.5 225.07"/><path class="cls-18" d="M255,217.23l83.3-48.1c1.68-1,3-.23,3,1.64a6.62,6.62,0,0,1-3,5.15L255,224.56c-1.67,1-3,.2-3-1.73v-.35A6.69,6.69,0,0,1,255,217.23Z" transform="translate(-104.26 -38.74)"/><path class="cls-17" d="M254.16,231.8,392,152.22c1.2-.69,2.17-.2,2.17,1.09a4.64,4.64,0,0,1-2.17,3.6L254.16,236.49c-1.19.69-2.16.2-2.16-1.1A4.65,4.65,0,0,1,254.16,231.8Z" transform="translate(-104.26 -38.74)"/><path class="cls-17" d="M254.16,241.21,392,161.63c1.2-.69,2.17-.2,2.17,1.1a4.64,4.64,0,0,1-2.17,3.59L254.16,245.91c-1.19.69-2.16.2-2.16-1.1A4.67,4.67,0,0,1,254.16,241.21Z" transform="translate(-104.26 -38.74)"/><path class="cls-17" d="M254.16,250.63,392,171.05c1.2-.69,2.17-.2,2.17,1.09a4.64,4.64,0,0,1-2.17,3.6L254.16,255.32c-1.19.69-2.16.2-2.16-1.09A4.65,4.65,0,0,1,254.16,250.63Z" transform="translate(-104.26 -38.74)"/><path class="cls-17" d="M254.16,260.05,392,180.47c1.2-.69,2.17-.2,2.17,1.09a4.64,4.64,0,0,1-2.17,3.6L254.16,264.74c-1.19.69-2.16.2-2.16-1.1A4.65,4.65,0,0,1,254.16,260.05Z" transform="translate(-104.26 -38.74)"/><path class="cls-17" d="M254.16,269.46l96.18-56c1.19-.69,2.16-.2,2.16,1.09a4.64,4.64,0,0,1-2.17,3.6l-96.17,56c-1.19.69-2.16.2-2.16-1.1A4.67,4.67,0,0,1,254.16,269.46Z" transform="translate(-104.26 -38.74)"/><path class="cls-17" d="M254.16,288.3,392,208.72c1.2-.69,2.17-.2,2.17,1.09a4.64,4.64,0,0,1-2.17,3.6L254.16,293c-1.19.69-2.16.2-2.16-1.1A4.65,4.65,0,0,1,254.16,288.3Z" transform="translate(-104.26 -38.74)"/><path class="cls-17" d="M254.16,297.71,392,218.13c1.2-.69,2.17-.2,2.17,1.1a4.64,4.64,0,0,1-2.17,3.59L254.16,302.41c-1.19.69-2.16.2-2.16-1.1A4.67,4.67,0,0,1,254.16,297.71Z" transform="translate(-104.26 -38.74)"/><path class="cls-17" d="M254.16,307.13,392,227.55c1.2-.69,2.17-.2,2.17,1.09a4.64,4.64,0,0,1-2.17,3.6L254.16,311.82c-1.19.69-2.16.2-2.16-1.09A4.65,4.65,0,0,1,254.16,307.13Z" transform="translate(-104.26 -38.74)"/><path class="cls-17" d="M254.16,316.55,304.81,287c1.19-.69,2.16-.2,2.16,1.09a4.65,4.65,0,0,1-2.16,3.6l-50.65,29.56c-1.19.69-2.16.2-2.16-1.1A4.65,4.65,0,0,1,254.16,316.55Z" transform="translate(-104.26 -38.74)"/><path class="cls-19" d="M438.36,262.5c7.33-23.79,14.46-39.45,7.19-44.3h0c-6.76,1.25-9.79,4.6-11.23,13.52-1.51,9.36-4.65,22.39-6.48,29.92a88.88,88.88,0,0,1-6.75,18.16,3.82,3.82,0,0,1-2,1.76c-2.26.88-3.34,2-5.18,3.35-1.45,1-2.51,1.15-2.44,1.58a1.9,1.9,0,0,0,2.26,1.4,13.86,13.86,0,0,0,3.15-1,15.71,15.71,0,0,1-3.94,5.77c-3.55,3-3,5.92,2.69,6.27,2,.12,6.77-1.74,11.16-9.21a75.25,75.25,0,0,0,3.91-8.61C433.76,273.44,436.89,267.26,438.36,262.5Z" transform="translate(-104.26 -38.74)"/><path class="cls-11" d="M446.85,217.92s-5.64-.29-9.06,3.47-7.4,26.29-7.4,26.29,3.74,5.15,13.6,3Z" transform="translate(-104.26 -38.74)"/><path class="cls-20" d="M446.85,218.41s-5.64-.29-9.06,3.48-7.4,26.29-7.4,26.29,3.74,5.14,13.6,3Z" transform="translate(-104.26 -38.74)"/><rect class="cls-19" x="361.4" y="338.94" width="7.57" height="13.5"/><polygon class="cls-19" points="342.72 338.22 335.15 338.49 334.77 324.2 342.72 323.93 342.72 338.22"/><path class="cls-2" d="M474.3,260.8c0,7.53-1.11,68.13-1.11,68.13.17,2.17,2.12,6.16,1.7,14.49-.57,11.3-1.34,41-1.34,41a9.59,9.59,0,0,1-8.43.17s-7.16-41.15-8.51-52.35c-1.19-9.78-3.2-42.7-3.2-42.7l-4.1,38.28a46.92,46.92,0,0,1,.94,12.53c-.36,5.19-2.79,32.17-2.79,32.17a10,10,0,0,1-8.74.7s-4.31-40.65-4.4-45.4c-.1-5.42,2.52-67.12,2.52-67.12Z" transform="translate(-104.26 -38.74)"/><path class="cls-8" d="M465.66,387.29v-1.13c-.73.33-2.41,7-5.41,9.87-2.39,2.27-5.65,4.89-6.48,7.42s4.54,4.08,6.77,3.67c2.59-.48,7.09-2.38,8.21-4.14s1.66-4.36,2.58-5.65,3-2.74,3.52-4.23a10,10,0,0,0-.43-4.14c-.35-1.4-.73-2.93-1.19-2.8V387a5.88,5.88,0,0,1-3.79,1.33C468.34,388.4,465.65,388.17,465.66,387.29Z" transform="translate(-104.26 -38.74)"/><path class="cls-8" d="M439.33,374.8c-.39,0-.71.59-1.58,1.57a16.83,16.83,0,0,1-4.45,3.34c-2.84,1.47-8.35,3.75-10.85,4.92-1.55.73-1.48,2.69.13,3.81s5.5,1.92,10.17.83c2.54-.59,5.86-3,7.95-2.91s6,.1,7.57-1,.93-3.48.49-5.52c-.48-2.23-1.07-5.7-1.78-5.54v.76c-.91,1.44-5.61,2-7.61,1Z" transform="translate(-104.26 -38.74)"/><path class="cls-8" d="M453.41,289.55a27.59,27.59,0,0,1-10.54-6.3s2,4,8.08,7.66l-1.29,34.19Z" transform="translate(-104.26 -38.74)"/><path class="cls-11" d="M470.36,219.72s5.92.54,5.5,11.83l-1.31,18,0,27c-5.57,6.31-30.25,5.85-38.7-.5,0,0,.95-31.93,1.52-44.22.41-8.74,2.42-13.14,11-14.1l10.55.47Z" transform="translate(-104.26 -38.74)"/><polygon class="cls-21" points="349.27 186.9 347.91 196.38 344.75 196.32 348.32 196.88 349.27 186.9"/><path class="cls-8" d="M461.43,194.28A11.51,11.51,0,0,1,450.16,206c-6.23,0-11-5.26-11.28-11.74-.49-11.46,5.05-11.74,11.28-11.74A11.52,11.52,0,0,1,461.43,194.28Z" transform="translate(-104.26 -38.74)"/><path class="cls-8" d="M467.85,200.1s-1.73,8.46-2.42,9.85a3.7,3.7,0,0,1-2.13,1.79l.13-6Z" transform="translate(-104.26 -38.74)"/><path class="cls-8" d="M465.68,188s1.24-.31,2.56,1.75c1.13,1.77,1.39,5.73-.39,10.37l-3.25.39Z" transform="translate(-104.26 -38.74)"/><path class="cls-19" d="M463.62,200.5c.65.4,1.58-.9,2.39-1.78s3.43-2.08,4.75.8-1.16,6.81-3.23,7.49c-3.57,1.16-4.1-1.22-4.1-1.22l-.28,13.4c-4.73,7.32-15.46,7.06-11.6-.36v-4.07a21.36,21.36,0,0,1-4.81.25c-2.62-.42-4.27-2.57-5.07-5.53-1.28-4.75-1.76-8.59-.68-17.93,1.19-10.24,12.62-10.35,18.8-6.3S463.62,200.5,463.62,200.5Z" transform="translate(-104.26 -38.74)"/><path class="cls-8" d="M463.21,216.19a17.15,17.15,0,0,1-4.63,5.81,13.13,13.13,0,0,1-5.61,2.38,12.43,12.43,0,0,1,3.95,4.45c1.19,2.6,9.52-4.57,9.44-9.66,0,0-1.31-5.11-3.1-5.44Z" transform="translate(-104.26 -38.74)"/><path class="cls-8" d="M453,224.38s-2.57-1.28-1.42-5.55v-4.07l-1.13.15a9.88,9.88,0,0,0-2.7,4.69c-.26,1.16-.9,7.08.23,8.26S450.66,224.7,453,224.38Z" transform="translate(-104.26 -38.74)"/><path class="cls-8" d="M459.24,189.33a1.75,1.75,0,0,1,.88.06c1,.44,1.18,3.45,1.35,4.32.57,2.94,1,7.91,2.15,7.93.33,0,1.58-2.15,2.39-2.92,1.13-1.07-.33-10.74-.33-10.74a4.69,4.69,0,0,0-1.08-4.88c-2-2.33-5.22-2.84-8.13-3-3.43-.19-6.91.07-10.29-.68a27.28,27.28,0,0,0-3.23-.69.37.37,0,0,0-.29.05c-.11.09-.09.26-.06.4a10.24,10.24,0,0,0,1.06,2.89,26.52,26.52,0,0,1-5.92-1.16.57.57,0,0,0-.34,0c-.23.07-.27.37-.25.61.13,2.43,1.28,6.08,3.25,7.51a11.35,11.35,0,0,0,5.86,1.84C451.56,191,454.85,189.85,459.24,189.33Z" transform="translate(-104.26 -38.74)"/><path class="cls-8" d="M465.68,188.49l3.95-2.2a2.14,2.14,0,0,0-3-1A2.5,2.5,0,0,0,465.68,188.49Z" transform="translate(-104.26 -38.74)"/><path class="cls-22" d="M451.56,214.76s5.85-1.23,7.9-2.37a6.85,6.85,0,0,0,2.83-2.91,9.71,9.71,0,0,1-1.61,3.44c-1.49,2-9.12,3.46-9.12,3.46Z" transform="translate(-104.26 -38.74)"/><path class="cls-8" d="M453,199a1.17,1.17,0,1,0,1.17-1.27A1.22,1.22,0,0,0,453,199Z" transform="translate(-104.26 -38.74)"/><path class="cls-8" d="M454.85,193.91l2.51,1.44a1.6,1.6,0,0,0-.58-2.08A1.38,1.38,0,0,0,454.85,193.91Z" transform="translate(-104.26 -38.74)"/><path class="cls-22" d="M452.09,207.41l-2.68,1.05a1.4,1.4,0,0,0,1.82.93A1.6,1.6,0,0,0,452.09,207.41Z" transform="translate(-104.26 -38.74)"/><path class="cls-8" d="M442.2,195l2.29-1.84a1.36,1.36,0,0,0-2-.32A1.63,1.63,0,0,0,442.2,195Z" transform="translate(-104.26 -38.74)"/><path class="cls-8" d="M443.21,198.62a1.17,1.17,0,1,0,1.17-1.27A1.22,1.22,0,0,0,443.21,198.62Z" transform="translate(-104.26 -38.74)"/><polygon class="cls-22" points="345.23 158.9 345.09 166.31 340.88 165.35 345.23 158.9"/><path class="cls-5" d="M481.88,205.09c1.69-2.24,5.11,2.74,6.69,6.17s1.61,5.37.31,6.73-3.75.53-6.2-2.71S480.91,206.75,481.88,205.09Z" transform="translate(-104.26 -38.74)"/><path class="cls-23" d="M481.88,205.09c1.69-2.24,5.11,2.74,6.69,6.17s1.61,5.37.31,6.73-3.75.53-6.2-2.71S480.91,206.75,481.88,205.09Z" transform="translate(-104.26 -38.74)"/><path class="cls-19" d="M493.77,205.76c-6,14-14.35,21.89-18.1,30.9-4.91-.34-8.74-12.2-5.08-17.27,0,0,14.38-15.57,15.68-21.69,1.16-5.43,2.71-14.39,2.58-19a3.22,3.22,0,0,0-.89-2c-1.51-1.62-1.51-2.92-2.48-4.72-.75-1.4-1.58-1.92-1.34-2.23a1.79,1.79,0,0,1,2.44-.18,9,9,0,0,1,1.86,1.78,10.25,10.25,0,0,0-.85-5.26c-1.67-3.78-1.26-5.71,3.83-4.36,3.2.84,5.2,3.5,5.68,11.18a75.86,75.86,0,0,1,.06,9.59c-.56,5.91-.91,12.06-1.64,17A25.68,25.68,0,0,1,493.77,205.76Z" transform="translate(-104.26 -38.74)"/><path class="cls-11" d="M469.14,219.55l12.69-14.5s-1.51,3.54,1.79,8.68,5.26,4.26,5.26,4.26-7.49,10.93-9.49,14.59-4.09,6.74-4.09,6.74a2.41,2.41,0,0,1-2.37,1.29C471.06,240.61,466.13,232.35,469.14,219.55Z" transform="translate(-104.26 -38.74)"/><path class="cls-24" d="M469.14,219.09l12.69-14.5s-1.51,3.54,1.79,8.68,5.26,4.26,5.26,4.26-7.49,10.93-9.49,14.59-4.09,6.74-4.09,6.74a2.41,2.41,0,0,1-2.37,1.29C471.06,240.15,466.13,231.89,469.14,219.09Z" transform="translate(-104.26 -38.74)"/><polygon class="cls-22" points="261.98 213.4 267.95 221.35 261.53 228.71 253.26 219.04 261.98 213.4"/><path class="cls-4" d="M346.69,234.06c5.21.25,7.69,1.05,10.42,4.27s16.37,22.94,16.37,22.94-2.41,6.76-7.69,6.18l-9.59-9.89Z" transform="translate(-104.26 -38.74)"/><path class="cls-8" d="M321.13,399.19a38.51,38.51,0,0,0-.6,6.27c-.07,3.81-.77,5.16-.86,8.29-.11,3.57.51,4.9,2,6.91s5.25,3.83,6.86.44,1.4-5.62.88-9.12-.6-5.62-.9-8.38c-.28-2.44-.6-4.29-.6-4.29Z" transform="translate(-104.26 -38.74)"/><path class="cls-25" d="M331.94,369.25,319.39,369c.19,8.37,1.52,22.31,1.74,30.17,0,1.48,0,11.49.52,14.53.84,4.58,6.26,4,6.55,1.22s-.35-14.42-.33-15.63c-.05-5,2.31-18.19,3.55-27.23C331.48,371.63,331.88,369.68,331.94,369.25Z" transform="translate(-104.26 -38.74)"/><path class="cls-8" d="M350.37,392.67s-.64,0-.75.57-.15,1.62-.41,2.65a15.05,15.05,0,0,0-.44,5c.21,1.17,2.88,2.91,4.71,3.22s4.4,2.11,5.83,3.45a14,14,0,0,0,8.11,3.19c3.05,0,5.17-1,6.17-2.64s-.91-1.83-4.39-4.09l-2.71-1.76c-5.51-3.6-7.53-5.53-9.09-9.14Z" transform="translate(-104.26 -38.74)"/><path class="cls-25" d="M357.44,390.71c-.09-2.59,1.23-21.69,1.23-21.69l-10.79,1.21c2.56,15.23,2.76,20.42,2.47,22.63h0a2.26,2.26,0,0,0-.07.64c0,3,3.35,4.55,6,6.53,1,.78,3.67,3.18,6.77,4.23,2,.68,5.71.94,6.18-.27-3.17-2.42-7.48-5.59-10-8.35C358,394.32,357.53,393.31,357.44,390.71Z" transform="translate(-104.26 -38.74)"/><path class="cls-5" d="M322.3,282.66c-5.88,12.85.22,58.14.22,58.14-.18,2.08-2.57,6.19-3.45,15.37C318,367,321,396.06,321,396.06a6.94,6.94,0,0,0,7,.15s7.59-42.67,9-53.46c1.19-9.41,3.47-30.11,3.47-30.11l6.48,30.06a55.89,55.89,0,0,0-2.06,9.29c-.61,6.35,5.57,38.19,5.57,38.19a8.73,8.73,0,0,0,7-.13s2.73-41.15,3.31-48.79c1-12.83-2.45-52.89-4.8-60.49Z" transform="translate(-104.26 -38.74)"/><path class="cls-23" d="M322.3,282.66c-5.88,12.85.22,58.14.22,58.14-.18,2.08-2.57,6.19-3.45,15.37C318,367,321,396.06,321,396.06a6.94,6.94,0,0,0,7,.15s7.59-42.67,9-53.46c1.19-9.41,3.47-30.11,3.47-30.11l6.48,30.06a55.89,55.89,0,0,0-2.06,9.29c-.61,6.35,5.57,38.19,5.57,38.19a8.73,8.73,0,0,0,7-.13s2.73-41.15,3.31-48.79c1-12.83-2.45-52.89-4.8-60.49Z" transform="translate(-104.26 -38.74)"/><path class="cls-26" d="M340.45,312.64l1.91-11.94s8.08-1.68,11.75-5.12a21,21,0,0,1-9.56,6.35l-2.15,9.19L346.16,339Z" transform="translate(-104.26 -38.74)"/><path class="cls-5" d="M325.32,242.72l8,2.09V227.88h0c-4.42-1.15-8,1.4-8,5.7Z" transform="translate(-104.26 -38.74)"/><path class="cls-27" d="M325.32,242.72l8,2.09V227.88h0c-4.42-1.15-8,1.4-8,5.7Z" transform="translate(-104.26 -38.74)"/><path class="cls-5" d="M341.16,230.29l-2.87-.07c-8.76-.2-15.7-7.76-15.51-16.88h0c0-9.94,7.7-18,17.24-18.09h0c9.54-.05,17.32,8,17.37,17.91l0,1C357.15,223.29,349.9,230.49,341.16,230.29Z" transform="translate(-104.26 -38.74)"/><path class="cls-27" d="M341.16,230.29l-2.87-.07c-8.76-.2-15.7-7.76-15.51-16.88h0c0-9.94,7.7-18,17.24-18.09h0c9.54-.05,17.32,8,17.37,17.91l0,1C357.15,223.29,349.9,230.49,341.16,230.29Z" transform="translate(-104.26 -38.74)"/><path class="cls-5" d="M327.75,199.42a2.16,2.16,0,0,0-2.77-1.56l.77,3a2.2,2.2,0,0,0-.58-.51,2.14,2.14,0,0,0-3,1l3.9,2.3a2.52,2.52,0,0,0,.26-1.28A2.46,2.46,0,0,0,327.75,199.42Z" transform="translate(-104.26 -38.74)"/><path class="cls-27" d="M327.75,199.42a2.16,2.16,0,0,0-2.77-1.56l.77,3a2.2,2.2,0,0,0-.58-.51,2.14,2.14,0,0,0-3,1l3.9,2.3a2.52,2.52,0,0,0,.26-1.28A2.46,2.46,0,0,0,327.75,199.42Z" transform="translate(-104.26 -38.74)"/><path class="cls-2" d="M332.48,234.75a73.59,73.59,0,0,0-8,1.54c3.1,7.61-1.76,19.35-1.76,19.35l4.59,14.13c-3.17,6.49-5.78,9.71-6.86,15,2.92,5.7,23.53,11.14,36.95.75,0,0-.43-14.44-2.14-22.85,4.39-8.57,3.67-11.08,2.78-14.07-2.09-7-6.31-9.63-11.34-14.53l-3-.31Z" transform="translate(-104.26 -38.74)"/><path class="cls-8" d="M327.83,275.43c2.49-2.56,7.77-3.28,7.77-3.28l-4.85-2.77-5.43-13.09a30,30,0,0,0,3.27-14.42l-3.12-.74c.38,6.92-2.76,14.51-2.76,14.51l4.59,14.13c-3.17,6.49-5.78,9.71-6.86,15,2,3.9,12.29,7.68,22.89,6.34C329.13,290.15,325.43,277.89,327.83,275.43Z" transform="translate(-104.26 -38.74)"/><path class="cls-28" d="M342.17,291.23l.58-.07A5.27,5.27,0,0,0,342.17,291.23Z" transform="translate(-104.26 -38.74)"/><path class="cls-25" d="M351,204.13c1.72,1.58,3.87,5,3.7,15-.15,8.49-2.78,10.6-4.11,11.22s-3.88.25-6.37-.16l0,3.52s3.28,3.64,3.08,6-4.68,3.31-7.91,1a30.52,30.52,0,0,1-6-6.05l0-10.69s-1.46,1.49-4-.76c-2.06-1.85-2.76-5-1.17-6.7a3.51,3.51,0,0,1,5.69,1.15,32.33,32.33,0,0,0,10.92-3.21A10.85,10.85,0,0,0,351,204.13Z" transform="translate(-104.26 -38.74)"/><path class="cls-8" d="M344.16,217.22a1,1,0,1,1-1.08-1.05A1.06,1.06,0,0,1,344.16,217.22Z" transform="translate(-104.26 -38.74)"/><path class="cls-29" d="M344.55,224.34l2.67.87a1.37,1.37,0,0,1-1.73,1A1.53,1.53,0,0,1,344.55,224.34Z" transform="translate(-104.26 -38.74)"/><path class="cls-8" d="M353.78,213.38l-2.43-.82a1.19,1.19,0,0,1,1.54-.86A1.42,1.42,0,0,1,353.78,213.38Z" transform="translate(-104.26 -38.74)"/><path class="cls-5" d="M333.87,216.71l0,3.6a1.7,1.7,0,0,0,1.76-1.72A1.87,1.87,0,0,0,333.87,216.71Z" transform="translate(-104.26 -38.74)"/><path class="cls-27" d="M333.87,216.71l0,3.6a1.7,1.7,0,0,0,1.76-1.72A1.87,1.87,0,0,0,333.87,216.71Z" transform="translate(-104.26 -38.74)"/><path class="cls-8" d="M352.94,216.87a1,1,0,1,1-1.09-1.05A1.07,1.07,0,0,1,352.94,216.87Z" transform="translate(-104.26 -38.74)"/><polygon class="cls-29" points="242.98 176.67 242.96 183.63 246.2 182.56 242.98 176.67"/><path class="cls-29" d="M344.17,230.23c-2.63-.35-8-1.93-8.89-4.15a5.8,5.8,0,0,0,1.91,2.82c1.62,1.43,7,3,7,3Z" transform="translate(-104.26 -38.74)"/><path class="cls-25" d="M312.17,270.33s6.42,9.11,7.52,10.3,1.86.8,3.05.27a35.44,35.44,0,0,1,4.46-1.46c2-.48,2.38,1.33.44,2.62-1.4.93-3,1.34-2.34,2.11A15.05,15.05,0,0,0,330,287c4.74,1.87,4.37,2.8,3.5,4.34-.76,1.33-3,4.21-11.45.81-3.49-1.4-8.41-5.39-10.73-8-3.35-3.71-8.58-10.36-8.58-10.36Z" transform="translate(-104.26 -38.74)"/><path class="cls-4" d="M325.71,236c-2.33.15-6.69.71-12.17,9.81-4.81,8-12.26,18.81-13.64,22.68-.56,1.56,1.62,4.82,4.43,8.15,3.83-.17,7.32-2.82,9.13-4.94a18.19,18.19,0,0,0-1.77-3.21l11.25-12.82s4.27-3.92,5.16-9C329.06,241.12,328.76,236.78,325.71,236Z" transform="translate(-104.26 -38.74)"/><polygon class="cls-11" points="284.38 214.48 256.67 221.78 249.04 253.14 275.39 245.49 284.38 214.48"/><polygon class="cls-30" points="284.38 214.48 256.67 221.78 249.04 253.14 275.39 245.49 284.38 214.48"/><g class="cls-31"><path d="M376.12,275.43a5.48,5.48,0,0,0,5.18,3.1l.2-.7Z" transform="translate(-104.26 -38.74)"/></g><g class="cls-31"><path d="M380.29,258.2s.1-.47.23-1.05-1.5-.61-3.63-.06l-4.09,1.06c-2.13.55-4,1.48-4.09,2.06l-.22,1.06Z" transform="translate(-104.26 -38.74)"/></g><path class="cls-2" d="M382.42,254.23c.08-.36-.58-.46-1.47-.21l-1.62.44s.48-2.28-3.1-1.48-4.38,3.39-4.38,3.39l-1.72.49c-1,.27-1.82.79-1.93,1.15l-.21.66,14.28-3.76Z" transform="translate(-104.26 -38.74)"/><path class="cls-2" d="M380.45,255.36c-1.3.31-1.85.49-2,1.39s-.32,1.78-.32,1.78l-6.32,1.67s.31-1.3.41-1.81-.12-.81-1.13-.55l-.08-.4,9.9-2.52Z" transform="translate(-104.26 -38.74)"/><path class="cls-2" d="M380.67,258.3l.23-1.05c.13-.59-1.5-.61-3.63-.06l-4.09,1.06c-2.13.55-4,1.48-4.09,2.06l-.22,1.06Z" transform="translate(-104.26 -38.74)"/><path class="cls-25" d="M385.72,263.29s-1,3.55-1.27,4.39-3.35,2.36-5.38,2.92-4.27,1.23-3.3,4.08c.88,2.62,4.24,3.22,5.94,3.15s4.05-1.71,5-4.34c1.17-3.35.54-6.93,1-8.89S386.74,262.12,385.72,263.29Z" transform="translate(-104.26 -38.74)"/><path class="cls-32" d="M280.75,264.12c-3.8-3.83-5.16-2.34-5.64,1.86a18.81,18.81,0,0,1-1.27,5.14,9.71,9.71,0,0,0-.71-2.54,1.85,1.85,0,0,0-2.26-1.11c-.37.16.09,1,0,2.67-.07,2.09-.75,3.24-.26,5.45a3.58,3.58,0,0,1-.37,2.44c-2,3.79-8.59,10.82-13.21,15.87l-17.55-15.85c-6-5.39-7.94-7.83-13.74-7.43a15.47,15.47,0,0,1,4.93,2.95c2.68,2.27,2.05,15.26,2.05,15.26s19.92,14.29,22,15.65a9.46,9.46,0,0,0,.91.54,4.9,4.9,0,0,0,6-1.14c4.25-4.87,10.45-14.43,14-19.41a59.51,59.51,0,0,0,4.33-7.54C283.52,269.91,283.13,266.52,280.75,264.12Z" transform="translate(-104.26 -38.74)"/><path class="cls-11" d="M226.36,270.27a10,10,0,0,1,8,2c3.42,2.59,18,16,18,16s.4,7.08-7,11.31L227.47,286.9Z" transform="translate(-104.26 -38.74)"/><path class="cls-20" d="M226.5,270.27a10,10,0,0,1,8,2c3.42,2.59,18,16,18,16s.4,7.08-7,11.31L227.6,286.9Z" transform="translate(-104.26 -38.74)"/><rect class="cls-32" x="97.29" y="391.51" width="7.57" height="13.5"/><polygon class="cls-32" points="123.54 390.79 131.11 391.06 131.49 376.77 123.54 376.5 123.54 390.79"/><path class="cls-2" d="M200.48,313.37c0,7.53,1.11,68.13,1.11,68.13-.17,2.17-2.12,6.17-1.7,14.49.57,11.3,1.34,41,1.34,41a9.61,9.61,0,0,0,8.43.18s7.16-41.15,8.52-52.36c1.18-9.77,3.19-42.7,3.19-42.7l4.1,38.28a47,47,0,0,0-.94,12.54c.36,5.18,2.79,32.17,2.79,32.17a10,10,0,0,0,8.75.69s4.3-40.64,4.39-45.4c.1-5.42-2.52-67.11-2.52-67.11Z" transform="translate(-104.26 -38.74)"/><path class="cls-8" d="M209.12,439.86v-1.13c.73.33,2.41,7,5.41,9.87,2.39,2.27,5.65,4.89,6.48,7.42s-4.54,4.09-6.77,3.68c-2.59-.48-7.09-2.38-8.21-4.15s-1.66-4.36-2.58-5.65-3-2.74-3.52-4.23a10,10,0,0,1,.43-4.14c.35-1.39.73-2.93,1.19-2.8v.86a5.82,5.82,0,0,0,3.79,1.34C206.44,441,209.13,440.74,209.12,439.86Z" transform="translate(-104.26 -38.74)"/><path class="cls-8" d="M235.45,427.37c.39,0,.71.59,1.58,1.57a16.62,16.62,0,0,0,4.45,3.34c2.84,1.48,8.35,3.75,10.85,4.92,1.55.73,1.48,2.69-.13,3.81s-5.5,1.92-10.17.83c-2.54-.59-5.86-3-7.95-2.91s-6,.1-7.57-1-.93-3.48-.49-5.52c.48-2.22,1.07-5.69,1.78-5.54v.77c.91,1.43,5.61,2,7.61,1Z" transform="translate(-104.26 -38.74)"/><path class="cls-8" d="M221.37,342.12a27.65,27.65,0,0,0,10.54-6.29s-2,4-8.08,7.66l1.29,34.18Z" transform="translate(-104.26 -38.74)"/><path class="cls-11" d="M204.42,272.29s-5.92.54-5.5,11.83l1.31,18-.12,27c5.56,6.31,30.25,5.84,38.7-.51,0,0-.87-31.93-1.44-44.22-.41-8.73-2.42-13.13-11-14.09l-10.55.46Z" transform="translate(-104.26 -38.74)"/><polygon class="cls-20" points="116.99 239.47 118.35 248.95 121.52 248.89 117.94 249.46 116.99 239.47"/><path class="cls-32" d="M185.63,311.05c3.07-24.69,10.14-37,18.75-38.41l-.61,15.8a139.56,139.56,0,0,0-8.2,26.14c-1.13,6.08-2.44,16.65-2.1,21.85a3.83,3.83,0,0,0,1.1,2.42c1.7,1.73,2.21,3.23,3.35,5.19.9,1.53,1.82,2.07,1.58,2.44a1.91,1.91,0,0,1-2.64.34,14.12,14.12,0,0,1-2.46-2.22,15.7,15.7,0,0,0,1.24,6.88c2,4.15,1.68,6.34-3.9,5.12-3.5-.77-6-4.46-7-13.07a75.25,75.25,0,0,1-.17-9.65C185,325.65,185,316,185.63,311.05Z" transform="translate(-104.26 -38.74)"/><path class="cls-11" d="M204.87,272.23c-4.47,0-8.55.77-11.8,7-3.11,6-5.5,18.69-6.71,22.83,0,0,6.53,3.86,12.54,3.77l4.23-14.68S206,284.31,204.87,272.23Z" transform="translate(-104.26 -38.74)"/><path class="cls-20" d="M204.87,272.23c-4.47,0-8.55.77-11.8,7-3.11,6-5.5,18.69-6.71,22.83,0,0,6.53,3.86,12.54,3.77l4.23-14.68S206,284.31,204.87,272.23Z" transform="translate(-104.26 -38.74)"/><path class="cls-8" d="M214.1,246.8a11.28,11.28,0,1,0,11.27-11.74A11.5,11.5,0,0,0,214.1,246.8Z" transform="translate(-104.26 -38.74)"/><path class="cls-8" d="M206.93,252.68s1.73,8.46,2.42,9.85a3.66,3.66,0,0,0,2.13,1.78l-.13-5.95Z" transform="translate(-104.26 -38.74)"/><path class="cls-8" d="M209.1,240.56s-1.24-.31-2.56,1.74c-1.13,1.77-1.38,5.73.39,10.38l3.25.39Z" transform="translate(-104.26 -38.74)"/><path class="cls-32" d="M211.16,253.07c-.65.41-1.58-.9-2.39-1.78s-3.43-2.08-4.75.8,1.16,6.81,3.23,7.49c3.57,1.16,4.1-1.22,4.1-1.22l.28,13.4c4.73,7.33,15.46,7.06,11.6-.35v-4.08a21.79,21.79,0,0,0,4.81.26c2.62-.43,4.27-2.58,5.07-5.54,1.28-4.75,1.76-8.58.68-17.93-1.19-10.24-12.62-10.34-18.8-6.29S211.16,253.07,211.16,253.07Z" transform="translate(-104.26 -38.74)"/><path class="cls-8" d="M211.57,268.76a17.15,17.15,0,0,0,4.63,5.81,13.13,13.13,0,0,0,5.61,2.38,12.43,12.43,0,0,0-3.95,4.45c-1.19,2.6-9.52-4.57-9.44-9.66,0,0,1.31-5.11,3.1-5.43Z" transform="translate(-104.26 -38.74)"/><path class="cls-8" d="M221.81,277s2.57-1.27,1.42-5.54v-4.08l1.13.15a9.93,9.93,0,0,1,2.7,4.69c.26,1.17.9,7.08-.23,8.26S224.12,277.27,221.81,277Z" transform="translate(-104.26 -38.74)"/><path class="cls-8" d="M211.16,254.21c-.33,0-1.58-2.15-2.39-2.92-1.13-1.07.33-10.73.33-10.73a4.71,4.71,0,0,1,1.08-4.89c1.55-1.77,4.13-2,8.53-2.69a46,46,0,0,0,5.22-.94,31.42,31.42,0,0,0,5.22-2.54,2.57,2.57,0,0,1,1.76-.41,1.75,1.75,0,0,1,1.13,1.28,5.26,5.26,0,0,1,0,1.77,2.87,2.87,0,0,1,4.05.15,4.12,4.12,0,0,1,.64,4.27,7.63,7.63,0,0,1-3,3.38c-5.53,3.74-12.06,2.7-18.26,2a1.64,1.64,0,0,0-.88.05c-1,.44-1.18,3.46-1.35,4.33C212.74,249.22,212.26,254.19,211.16,254.21Z" transform="translate(-104.26 -38.74)"/><path class="cls-8" d="M209.1,241.07l-3.94-2.21a2.13,2.13,0,0,1,3-1A2.51,2.51,0,0,1,209.1,241.07Z" transform="translate(-104.26 -38.74)"/><path class="cls-33" d="M223.22,267.33s-5.85-1.23-7.9-2.36a6.92,6.92,0,0,1-2.83-2.92,9.71,9.71,0,0,0,1.61,3.44c1.49,2,9.12,3.46,9.12,3.46Z" transform="translate(-104.26 -38.74)"/><path class="cls-8" d="M221.1,251.2a1.21,1.21,0,0,1-1.17,1.26,1.27,1.27,0,0,1,0-2.54A1.24,1.24,0,0,1,221.1,251.2Z" transform="translate(-104.26 -38.74)"/><path class="cls-8" d="M219.09,246.12l-2.51,1.44a1.6,1.6,0,0,1,.58-2.08A1.38,1.38,0,0,1,219.09,246.12Z" transform="translate(-104.26 -38.74)"/><path class="cls-33" d="M222.69,260l2.68,1a1.39,1.39,0,0,1-1.82.93A1.58,1.58,0,0,1,222.69,260Z" transform="translate(-104.26 -38.74)"/><path class="cls-8" d="M232.83,247.52l-2.64-1.29a1.35,1.35,0,0,1,1.87-.75A1.64,1.64,0,0,1,232.83,247.52Z" transform="translate(-104.26 -38.74)"/><path class="cls-8" d="M231.09,251.2a1.18,1.18,0,1,1-1.18-1.28A1.25,1.25,0,0,1,231.09,251.2Z" transform="translate(-104.26 -38.74)"/><polygon class="cls-33" points="120.18 211.55 120.31 218.96 124.52 217.99 120.18 211.55"/><path class="cls-8" d="M219.29,248.13a2.93,2.93,0,0,0,0,5.86h.53a2.93,2.93,0,0,0,0-5.86Zm-3.46,2.93a3.49,3.49,0,0,1,3.46-3.52h.53a3.53,3.53,0,0,1,0,7.05h-.53A3.5,3.5,0,0,1,215.83,251.06Z" transform="translate(-104.26 -38.74)"/><path class="cls-8" d="M229.84,248.13a2.93,2.93,0,0,0,0,5.86h.53a2.93,2.93,0,0,0,0-5.86Zm-3.46,2.93a3.49,3.49,0,0,1,3.46-3.52h.53a3.53,3.53,0,0,1,0,7.05h-.53A3.5,3.5,0,0,1,226.38,251.06Z" transform="translate(-104.26 -38.74)"/><path class="cls-8" d="M223.24,250.37a2.26,2.26,0,0,1,1.83-1,1.82,1.82,0,0,1,1.59.61l.47-.36a2.38,2.38,0,0,0-2.09-.84,2.8,2.8,0,0,0-2.3,1.23Z" transform="translate(-104.26 -38.74)"/><rect class="cls-8" x="105.92" y="211.6" width="5.96" height="0.59"/></svg>